<svg xmlns="http://www.w3.org/2000/svg" viewBox="0 0 512 512" role="img" aria-label="Zenith hero avatar">
  <defs>
    <linearGradient id="bg" x1="0" y1="0" x2="1" y2="1">
      <stop offset="0%" stop-color="#07101f"/>
      <stop offset="100%" stop-color="#122b3f"/>
    </linearGradient>
    <linearGradient id="armor" x1="0" y1="0" x2="0" y2="1">
      <stop offset="0%" stop-color="#9adbe8"/>
      <stop offset="100%" stop-color="#3b7d8b"/>
    </linearGradient>
    <radialGradient id="core" cx="50%" cy="46%" r="38%">
      <stop offset="0%" stop-color="#dffcff"/>
      <stop offset="45%" stop-color="#7be7f1"/>
      <stop offset="100%" stop-color="#0ea5b7"/>
    </radialGradient>
  </defs>
  <rect width="512" height="512" rx="96" fill="url(#bg)"/>
  <circle cx="256" cy="256" r="194" fill="none" stroke="#14b8a6" stroke-opacity="0.35" stroke-width="12"/>
  <circle cx="256" cy="256" r="156" fill="none" stroke="#67e8f9" stroke-opacity="0.2" stroke-width="8"/>

  <path d="M256 96l52 52v76h-104v-76z" fill="#0b1828" stroke="#67e8f9" stroke-width="8"/>
  <path d="M180 212h152v170c0 20-17 36-38 36h-76c-21 0-38-16-38-36z" fill="url(#armor)" stroke="#83e8f5" stroke-width="8"/>
  <path d="M208 250h96v28h-96z" fill="#11263b" opacity="0.85"/>
  <path d="M172 274h34v80h-34zM306 274h34v80h-34z" fill="#365f78" stroke="#83e8f5" stroke-width="6"/>

  <polygon points="256,226 272,258 308,263 282,288 288,324 256,307 224,324 230,288 204,263 240,258"
           fill="url(#core)" stroke="#d9fbff" stroke-width="6"/>
  <circle cx="256" cy="273" r="15" fill="#eaffff" opacity="0.9"/>

  <path d="M226 166h60v22h-60z" fill="#d8fbff"/>
  <circle cx="242" cy="177" r="7" fill="#0b1324"/>
  <circle cx="270" cy="177" r="7" fill="#0b1324"/>
  <path d="M236 194q20 14 40 0" fill="none" stroke="#d8fbff" stroke-width="6" stroke-linecap="round"/>

  <polygon points="150,152 170,176 140,182" fill="#67e8f9" opacity="0.75"/>
  <polygon points="362,152 342,176 372,182" fill="#67e8f9" opacity="0.75"/>
  <polygon points="90,290 110,314 80,320" fill="#14b8a6" opacity="0.65"/>
  <polygon points="422,290 402,314 432,320" fill="#14b8a6" opacity="0.65"/>

  <circle cx="120" cy="110" r="8" fill="#dffcff" opacity="0.8"/>
  <circle cx="386" cy="112" r="6" fill="#dffcff" opacity="0.75"/>
  <circle cx="400" cy="376" r="7" fill="#9cf4ff" opacity="0.75"/>
  <circle cx="116" cy="384" r="5" fill="#9cf4ff" opacity="0.7"/>
</svg>
