<svg xmlns="http://www.w3.org/2000/svg" viewBox="0 0 100 160" shape-rendering="geometricPrecision">
<defs>
  <radialGradient id="sk" cx="38%" cy="32%" r="58%">
    <stop offset="0%" stop-color="#ffe0bb"/><stop offset="65%" stop-color="#f4b87a"/><stop offset="100%" stop-color="#c97a45"/>
  </radialGradient>
  <linearGradient id="armor" x1="0%" y1="0%" x2="100%" y2="100%">
    <stop offset="0%" stop-color="#16a34a"/><stop offset="50%" stop-color="#15803d"/><stop offset="100%" stop-color="#052e16"/>
  </linearGradient>
  <linearGradient id="armorH" x1="0%" y1="0%" x2="100%" y2="0%">
    <stop offset="0%" stop-color="rgba(255,255,255,0.18)"/><stop offset="100%" stop-color="rgba(0,0,0,0)"/>
  </linearGradient>
  <linearGradient id="plate" x1="0%" y1="0%" x2="100%" y2="100%">
    <stop offset="0%" stop-color="#22c55e"/><stop offset="50%" stop-color="#16a34a"/><stop offset="100%" stop-color="#052e16"/>
  </linearGradient>
  <linearGradient id="hair" x1="0%" y1="0%" x2="0%" y2="100%">
    <stop offset="0%" stop-color="#166534"/><stop offset="100%" stop-color="#052e16"/>
  </linearGradient>
  <radialGradient id="core" cx="30%" cy="30%" r="70%">
    <stop offset="0%" stop-color="#bbf7d0"/><stop offset="40%" stop-color="#22c55e"/><stop offset="80%" stop-color="#15803d"/><stop offset="100%" stop-color="#052e16"/>
  </radialGradient>
  <filter id="glow" x="-40%" y="-40%" width="180%" height="180%">
    <feGaussianBlur in="SourceGraphic" stdDeviation="3.5" result="b"/>
    <feMerge><feMergeNode in="b"/><feMergeNode in="SourceGraphic"/></feMerge>
  </filter>
  <filter id="ds"><feDropShadow dx="2" dy="4" stdDeviation="4" flood-color="#052e16" flood-opacity="0.55"/></filter>
  <filter id="gglow" x="-30%" y="-30%" width="160%" height="160%">
    <feGaussianBlur in="SourceAlpha" stdDeviation="5" result="b"/>
    <feFlood flood-color="#22c55e" flood-opacity="0.5" result="c"/>
    <feComposite in="c" in2="b" operator="in" result="s"/>
    <feMerge><feMergeNode in="s"/><feMergeNode in="SourceGraphic"/></feMerge>
  </filter>
</defs>
<!-- Ground shadow (wide for big character) -->
<ellipse cx="50" cy="155" rx="38" ry="6" fill="rgba(0,0,0,0.2)"/>
<!-- Power aura -->
<circle cx="50" cy="88" r="48" fill="rgba(34,197,94,0.07)"/>
<!-- Legs (wider) -->
<rect x="22" y="108" width="22" height="38" rx="7" fill="#052e16"/>
<rect x="56" y="108" width="22" height="38" rx="7" fill="#052e16"/>
<!-- Knee armor plates -->
<rect x="22" y="118" width="22" height="12" rx="5" fill="#15803d"/>
<rect x="56" y="118" width="22" height="12" rx="5" fill="#15803d"/>
<path d="M24 120 Q23 126 24 130" stroke="rgba(255,255,255,0.1)" stroke-width="1.5" fill="none"/>
<path d="M58 120 Q57 126 58 130" stroke="rgba(255,255,255,0.1)" stroke-width="1.5" fill="none"/>
<!-- Boots (heavy) -->
<ellipse cx="33" cy="148" rx="14" ry="5.5" fill="#021b0e"/>
<ellipse cx="67" cy="148" rx="14" ry="5.5" fill="#021b0e"/>
<path d="M21 144 Q27 149 44 151" stroke="#22c55e" stroke-width="1.2" fill="none" opacity="0.4"/>
<path d="M55 144 Q61 149 76 151" stroke="#22c55e" stroke-width="1.2" fill="none" opacity="0.4"/>
<!-- Torso armor (very wide) -->
<path d="M16 68 Q10 88 12 108 Q30 118 50 118 Q70 118 88 108 Q90 88 84 68 Z" fill="url(#armor)" filter="url(#ds)"/>
<path d="M16 68 Q10 88 12 108 Q30 118 50 118" fill="url(#armorH)"/>
<!-- Chest armor plate (central) -->
<path d="M26 68 Q22 84 23 102 Q36 110 50 110 Q64 110 77 102 Q78 84 74 68 Z" fill="url(#plate)"/>
<path d="M27 68 Q24 84 25 100" stroke="rgba(255,255,255,0.12)" stroke-width="2.5" fill="none"/>
<!-- Armor ridges -->
<path d="M32 75 L32 100" stroke="rgba(0,0,0,0.15)" stroke-width="1.5" fill="none"/>
<path d="M68 75 L68 100" stroke="rgba(0,0,0,0.15)" stroke-width="1.5" fill="none"/>
<!-- Power core / gem on chest -->
<circle cx="50" cy="88" r="12" fill="#052e16" filter="url(#gglow)"/>
<circle cx="50" cy="88" r="10" fill="url(#core)"/>
<circle cx="46" cy="84" r="4" fill="rgba(255,255,255,0.4)"/>
<circle cx="50" cy="88" r="10.5" fill="none" stroke="#4ade80" stroke-width="1.5" opacity="0.5"/>
<!-- Power radiating lines -->
<path d="M50 76 L50 72" stroke="#4ade80" stroke-width="1.5" filter="url(#glow)" opacity="0.6"/>
<path d="M62 88 L66 88" stroke="#4ade80" stroke-width="1.5" filter="url(#glow)" opacity="0.6"/>
<path d="M38 88 L34 88" stroke="#4ade80" stroke-width="1.5" filter="url(#glow)" opacity="0.6"/>
<path d="M50 100 L50 104" stroke="#4ade80" stroke-width="1.5" filter="url(#glow)" opacity="0.6"/>
<!-- Belt armored -->
<rect x="20" y="104" width="60" height="8" rx="4" fill="#021b0e"/>
<rect x="43" y="104" width="14" height="8" rx="2" fill="#052e16"/>
<circle cx="50" cy="108" r="4" fill="url(#core)" filter="url(#glow)"/>
<!-- Massive shoulder plates -->
<path d="M16 68 Q4 60 2 70 Q3 82 12 86 Q16 84 16 76" fill="url(#plate)"/>
<path d="M84 68 Q96 60 98 70 Q97 82 88 86 Q84 84 84 76" fill="url(#plate)"/>
<ellipse cx="5" cy="72" rx="5" ry="7" fill="rgba(255,255,255,0.14)" transform="rotate(-10 5 72)"/>
<ellipse cx="95" cy="72" rx="5" ry="7" fill="rgba(255,255,255,0.14)" transform="rotate(10 95 72)"/>
<!-- Shoulder bolts -->
<circle cx="10" cy="76" r="2.5" fill="#4ade80" filter="url(#glow)"/>
<circle cx="90" cy="76" r="2.5" fill="#4ade80" filter="url(#glow)"/>
<!-- Arms (very thick) -->
<path d="M14 70 Q1 80 0 96 Q0 106 7 108 Q16 106 18 96 Q20 84 16 70" fill="url(#armor)"/>
<path d="M12 74 Q5 84 4 98" stroke="rgba(255,255,255,0.08)" stroke-width="2" fill="none"/>
<!-- Wrist/gauntlet left -->
<rect x="1" y="100" width="15" height="10" rx="4" fill="#052e16"/>
<path d="M2 102 Q4 106 4 110" stroke="#4ade80" stroke-width="1" fill="none" opacity="0.5"/>
<rect x="84" y="70" width="16" height="38" rx="8" fill="url(#armor)"/>
<rect x="84" y="100" width="15" height="10" rx="4" fill="#052e16"/>
<path d="M94 102 Q93 106 93 110" stroke="#4ade80" stroke-width="1" fill="none" opacity="0.5"/>
<!-- Left fist (large) -->
<circle cx="9" cy="111" r="9" fill="url(#sk)"/>
<ellipse cx="7" cy="107" rx="4.5" ry="3" fill="url(#sk)"/>
<!-- Green energy fist glow -->
<circle cx="9" cy="111" r="11" fill="none" stroke="#22c55e" stroke-width="1.5" opacity="0.35" filter="url(#glow)"/>
<!-- Right fist (large) -->
<circle cx="91" cy="111" r="9" fill="url(#sk)"/>
<ellipse cx="93" cy="107" rx="4.5" ry="3" fill="url(#sk)"/>
<circle cx="91" cy="111" r="11" fill="none" stroke="#22c55e" stroke-width="1.5" opacity="0.35" filter="url(#glow)"/>
<!-- Neck (thick) -->
<rect x="41" y="56" width="18" height="13" rx="5" fill="url(#sk)"/>
<!-- Head aura -->
<circle cx="50" cy="39" r="30" fill="rgba(34,197,94,0.08)"/>
<!-- Head (wide, powerful) -->
<ellipse cx="50" cy="39" rx="24" ry="23" fill="url(#sk)" filter="url(#ds)"/>
<ellipse cx="44" cy="34" rx="14" ry="14" fill="rgba(255,255,255,0.08)"/>
<!-- Cheek shadow -->
<ellipse cx="32" cy="46" rx="8" ry="5.5" fill="rgba(180,90,40,0.12)"/>
<ellipse cx="68" cy="46" rx="8" ry="5.5" fill="rgba(180,90,40,0.12)"/>
<!-- Ears -->
<path d="M26 38 Q20 37 19 42 Q20 48 26 48 Q28 48 29 44 Q29 38 26 38" fill="url(#sk)"/>
<path d="M74 38 Q80 37 81 42 Q80 48 74 48 Q72 48 71 44 Q71 38 74 38" fill="url(#sk)"/>
<!-- Short strong hair -->
<path d="M26 34 Q25 18 34 11 Q38 20 40 13 Q44 5 48 14 Q49 6 52 14 Q55 6 59 14 Q63 20 66 30" fill="url(#hair)" filter="url(#ds)"/>
<!-- Headband -->
<rect x="24" y="24" width="52" height="7" rx="3.5" fill="#15803d"/>
<rect x="24" y="24" width="52" height="2.5" rx="2" fill="rgba(255,255,255,0.1)"/>
<!-- Headband symbol -->
<text x="50" y="30.5" text-anchor="middle" font-size="7" fill="#4ade80" font-family="sans-serif" filter="url(#glow)" opacity="0.9">力</text>
<!-- Eyes (strong, green) -->
<ellipse cx="40" cy="38" rx="6.5" ry="6.5" fill="white"/>
<circle cx="40.5" cy="38.5" r="5" fill="#15803d"/>
<circle cx="40.5" cy="38.5" r="3.5" fill="#052e16"/>
<circle cx="38.5" cy="36.5" r="1.8" fill="white" opacity="0.9"/>
<circle cx="43" cy="40.5" r="0.8" fill="white" opacity="0.5"/>
<ellipse cx="40.5" cy="38.5" rx="6" ry="6" fill="none" stroke="#22c55e" stroke-width="0.8" opacity="0.5"/>
<ellipse cx="60" cy="38" rx="6.5" ry="6.5" fill="white"/>
<circle cx="60.5" cy="38.5" r="5" fill="#15803d"/>
<circle cx="60.5" cy="38.5" r="3.5" fill="#052e16"/>
<circle cx="58.5" cy="36.5" r="1.8" fill="white" opacity="0.9"/>
<circle cx="63" cy="40.5" r="0.8" fill="white" opacity="0.5"/>
<ellipse cx="60.5" cy="38.5" rx="6" ry="6" fill="none" stroke="#22c55e" stroke-width="0.8" opacity="0.5"/>
<!-- Thick brows -->
<path d="M32 29 Q37 25.5 44 28" stroke="#145a2d" stroke-width="4" fill="none" stroke-linecap="round"/>
<path d="M56 28 Q63 25.5 68 29" stroke="#145a2d" stroke-width="4" fill="none" stroke-linecap="round"/>
<!-- Brow highlight -->
<path d="M33 29 Q38 27 43 28" stroke="rgba(255,255,255,0.15)" stroke-width="1.5" fill="none" stroke-linecap="round"/>
<path d="M57 28 Q62 27 67 29" stroke="rgba(255,255,255,0.15)" stroke-width="1.5" fill="none" stroke-linecap="round"/>
<!-- Nose (strong) -->
<path d="M47 42 Q45 47 47.5 51 Q50 53 52.5 51 Q55 47 53 42" fill="rgba(200,110,60,0.3)"/>
<!-- Confident set mouth -->
<path d="M41 57 Q46 60 50 60 Q54 60 59 57" stroke="#a0614a" stroke-width="2" fill="none" stroke-linecap="round"/>
<!-- Power particles -->
<circle cx="14" cy="26" r="3" fill="#22c55e" opacity="0.7" filter="url(#glow)"/>
<path d="M12 24 L13 20 M11 26 L8 25 M13 21 L15 19" stroke="#4ade80" stroke-width="1" opacity="0.65"/>
<circle cx="86" cy="34" r="2.5" fill="#22c55e" opacity="0.6" filter="url(#glow)"/>
<path d="M84 32 L85 29 M83 34 L80 33 M85 30 L87 28" stroke="#4ade80" stroke-width="0.9" opacity="0.55"/>
</svg>
